<svg width="170px" height="126px" viewBox="491 339 170 126" version="1.1" xmlns="http://www.w3.org/2000/svg" xmlns:xlink="http://www.w3.org/1999/xlink">
    <g id="Group-3" stroke="none" stroke-width="1" fill="none" fill-rule="evenodd" transform="translate(491.000000, 339.000000)">
        <circle id="Oval-3-Copy-223" fill="#F0EAFF" cx="73.6574254" cy="30.2399996" r="8.39999962"></circle>
        <circle id="Oval-3-Copy-218" fill="#F0EAFF" cx="73.6574254" cy="52.0799996" r="8.39999962"></circle>
        <circle id="Oval-3-Copy-217" fill="#F0EAFF" cx="30.1524749" cy="52.0799996" r="8.39999962"></circle>
        <circle id="Oval-3-Copy-216" fill="#F0EAFF" cx="51.9049501" cy="52.0799996" r="8.39999962"></circle>
        <circle id="Oval-3-Copy-215" fill="#F0EAFF" cx="8.39999962" cy="73.9199996" r="8.39999962"></circle>
        <circle id="Oval-3-Copy-213" fill="#F0EAFF" cx="73.6574254" cy="73.9199996" r="8.39999962"></circle>
        <circle id="Oval-3-Copy-212" fill="#F0EAFF" cx="30.1524749" cy="73.9199996" r="8.39999962"></circle>
        <circle id="Oval-3-Copy-211" fill="#F0EAFF" cx="51.9049501" cy="73.9199996" r="8.39999962"></circle>
        <circle id="Oval-3-Copy-210" fill="#F0EAFF" cx="8.39999962" cy="95.7599996" r="8.39999962"></circle>
        <circle id="Oval-3-Copy-208" fill="#F0EAFF" cx="73.6574254" cy="95.7599996" r="8.39999962"></circle>
        <circle id="Oval-3-Copy-207" fill="#F0EAFF" cx="30.1524749" cy="95.7599996" r="8.39999962"></circle>
        <circle id="Oval-3-Copy-206" fill="#F0EAFF" cx="51.9049501" cy="95.7599996" r="8.39999962"></circle>
        <circle id="Oval-3-Copy-202" fill="#F0EAFF" cx="73.6574254" cy="117.6" r="8.39999962"></circle>
        <circle id="Oval-3-Copy-201" fill="#F0EAFF" cx="30.1524749" cy="117.6" r="8.39999962"></circle>
        <circle id="Oval-3-Copy-200" fill="#F0EAFF" cx="51.9049501" cy="117.6" r="8.39999962"></circle>
        <circle id="Oval-3-Copy-134" fill="#F0EAFF" cx="117.162376" cy="8.39999962" r="8.39999962"></circle>
        <circle id="Oval-3-Copy-133" fill="#F0EAFF" cx="95.4099006" cy="8.39999962" r="8.39999962"></circle>
        <circle id="Oval-3-Copy-132" fill="#F0EAFF" cx="117.162376" cy="30.2399996" r="8.39999962"></circle>
        <circle id="Oval-3-Copy-131" fill="#F0EAFF" cx="95.4099006" cy="30.2399996" r="8.39999962"></circle>
        <circle id="Oval-3-Copy-130" fill="#F0EAFF" cx="138.914851" cy="30.2399996" r="8.39999962"></circle>
        <circle id="Oval-3-Copy-129" fill="#F0EAFF" cx="117.162376" cy="52.0799996" r="8.39999962"></circle>
        <circle id="Oval-3-Copy-128" fill="#F0EAFF" cx="95.4099006" cy="52.0799996" r="8.39999962"></circle>
        <circle id="Oval-3-Copy-127" fill="#D8D8D8" cx="138.881188" cy="52.08" r="8.36633663"></circle>
        <circle id="Oval-3-Copy-135" fill="#F0EAFF" cx="138.914851" cy="52.0799996" r="8.39999962"></circle>
        <circle id="Oval-3-Copy-126" fill="#F0EAFF" cx="117.162376" cy="73.9199996" r="8.39999962"></circle>
        <circle id="Oval-3-Copy-125" fill="#F0EAFF" cx="95.4099006" cy="73.9199996" r="8.39999962"></circle>
        <circle id="Oval-3-Copy-123" fill="#F0EAFF" cx="138.914851" cy="73.9199996" r="8.39999962"></circle>
        <circle id="Oval-3-Copy-122" fill="#F0EAFF" cx="160.667326" cy="73.9199996" r="8.39999962"></circle>
        <circle id="Oval-3-Copy-121" fill="#F0EAFF" cx="117.162376" cy="95.7599996" r="8.39999962"></circle>
        <circle id="Oval-3-Copy-120" fill="#F0EAFF" cx="95.4099006" cy="95.7599996" r="8.39999962"></circle>
        <circle id="Oval-3-Copy-96" fill="#F0EAFF" cx="138.914851" cy="95.7599996" r="8.39999962"></circle>
        <circle id="Oval-3-Copy-95" fill="#F0EAFF" cx="160.667326" cy="95.7599996" r="8.39999962"></circle>
        <circle id="Oval-3-Copy-94" fill="#F0EAFF" cx="117.162376" cy="117.6" r="8.39999962"></circle>
        <circle id="Oval-3-Copy-93" fill="#F0EAFF" cx="95.4099006" cy="117.6" r="8.39999962"></circle>
        <circle id="Oval-3-Copy-92" fill="#F0EAFF" cx="138.914851" cy="117.6" r="8.39999962"></circle>
    </g>
</svg>