<svg width="170px" height="127px" viewBox="471 314 170 127" version="1.1" xmlns="http://www.w3.org/2000/svg" xmlns:xlink="http://www.w3.org/1999/xlink">
    <!-- Generator: Sketch 42 (36781) - http://www.bohemiancoding.com/sketch -->
    <desc>Created with Sketch.</desc>
    <defs></defs>
    <g id="Group-5" stroke="none" stroke-width="1" fill="none" fill-rule="evenodd" transform="translate(471.000000, 314.000000)">
        <ellipse id="Oval-3" fill="#FF5D9E" cx="30.2970297" cy="8.4" rx="8.41584158" ry="8.4"></ellipse>
        <ellipse id="Oval-3" fill="#FF5D9E" cx="52.1782178" cy="8.4" rx="8.41584158" ry="8.4"></ellipse>
        <ellipse id="Oval-3" fill="#FF5D9E" cx="30.2970297" cy="30.24" rx="8.41584158" ry="8.4"></ellipse>
        <ellipse id="Oval-3" fill="#FF5D9E" cx="8.41584158" cy="30.24" rx="8.41584158" ry="8.4"></ellipse>
        <ellipse id="Oval-3" fill="#FF5D9E" cx="95.9405941" cy="30.24" rx="8.41584158" ry="8.4"></ellipse>
        <ellipse id="Oval-3" fill="#FF5D9E" cx="52.1782178" cy="30.24" rx="8.41584158" ry="8.4"></ellipse>
        <ellipse id="Oval-3" fill="#FF5D9E" cx="74.0594059" cy="30.24" rx="8.41584158" ry="8.4"></ellipse>
        <ellipse id="Oval-3" fill="#FF5D9E" cx="30.2970297" cy="52.08" rx="8.41584158" ry="8.4"></ellipse>
        <ellipse id="Oval-3" fill="#FF5D9E" cx="8.41584158" cy="52.08" rx="8.41584158" ry="8.4"></ellipse>
        <ellipse id="Oval-3" fill="#FF5D9E" cx="95.9405941" cy="52.08" rx="8.41584158" ry="8.4"></ellipse>
        <ellipse id="Oval-3" fill="#FF5D9E" cx="52.1782178" cy="52.08" rx="8.41584158" ry="8.4"></ellipse>
        <ellipse id="Oval-3" fill="#FF5D9E" cx="74.0594059" cy="52.08" rx="8.41584158" ry="8.4"></ellipse>
        <ellipse id="Oval-3" fill="#FF5D9E" cx="30.2970297" cy="73.92" rx="8.41584158" ry="8.4"></ellipse>
        <ellipse id="Oval-3" fill="#FF5D9E" cx="95.9405941" cy="73.92" rx="8.41584158" ry="8.4"></ellipse>
        <ellipse id="Oval-3" fill="#FF5D9E" cx="52.1782178" cy="73.92" rx="8.41584158" ry="8.4"></ellipse>
        <ellipse id="Oval-3" fill="#FF5D9E" cx="74.0594059" cy="73.92" rx="8.41584158" ry="8.4"></ellipse>
        <ellipse id="Oval-3" fill="#FF5D9E" cx="95.9405941" cy="95.76" rx="8.41584158" ry="8.4"></ellipse>
        <ellipse id="Oval-3" fill="#FF5D9E" cx="52.1782178" cy="95.76" rx="8.41584158" ry="8.4"></ellipse>
        <ellipse id="Oval-3" fill="#FF5D9E" cx="74.0594059" cy="95.76" rx="8.41584158" ry="8.4"></ellipse>
        <ellipse id="Oval-3" fill="#FF5D9E" cx="95.9405941" cy="117.6" rx="8.41584158" ry="8.4"></ellipse>
        <ellipse id="Oval-3" fill="#FF5D9E" cx="74.0594059" cy="117.6" rx="8.41584158" ry="8.4"></ellipse>
        <ellipse id="Oval-3" fill="#FF5D9E" cx="139.70297" cy="8.4" rx="8.41584158" ry="8.4"></ellipse>
        <ellipse id="Oval-3" fill="#FF5D9E" cx="117.821782" cy="8.4" rx="8.41584158" ry="8.4"></ellipse>
        <ellipse id="Oval-3" fill="#FF5D9E" cx="139.70297" cy="30.24" rx="8.41584158" ry="8.4"></ellipse>
        <ellipse id="Oval-3" fill="#FF5D9E" cx="117.821782" cy="30.24" rx="8.41584158" ry="8.4"></ellipse>
        <ellipse id="Oval-3" fill="#FF5D9E" cx="161.584158" cy="30.24" rx="8.41584158" ry="8.4"></ellipse>
        <ellipse id="Oval-3" fill="#FF5D9E" cx="139.70297" cy="52.08" rx="8.41584158" ry="8.4"></ellipse>
        <ellipse id="Oval-3" fill="#FF5D9E" cx="117.821782" cy="52.08" rx="8.41584158" ry="8.4"></ellipse>
        <ellipse id="Oval-3" fill="#FF5D9E" cx="161.584158" cy="52.08" rx="8.41584158" ry="8.4"></ellipse>
        <ellipse id="Oval-3" fill="#FF5D9E" cx="139.70297" cy="73.92" rx="8.41584158" ry="8.4"></ellipse>
        <ellipse id="Oval-3" fill="#FF5D9E" cx="117.821782" cy="73.92" rx="8.41584158" ry="8.4"></ellipse>
        <ellipse id="Oval-3" fill="#FF5D9E" cx="117.821782" cy="95.76" rx="8.41584158" ry="8.4"></ellipse>
    </g>
</svg>